<svg width="64" height="40" viewBox="0 0 64 40" fill="none" xmlns="http://www.w3.org/2000/svg">
<path d="M0 8C0 3.58172 3.58172 0 8 0H56C60.4183 0 64 3.58172 64 8V32C64 36.4183 60.4183 40 56 40H8C3.58172 40 0 36.4183 0 32V8Z" fill="white"/>
<g clip-path="url(#clip0)">
<path d="M22.9826 17.5862C22.9177 17.5181 22.8365 17.5011 22.7391 17.5181C22.6417 17.5351 22.5768 17.5862 22.5281 17.6542L20.7425 20.2232L18.9569 17.6542C18.9082 17.5862 18.8433 17.5351 18.7459 17.5181C18.6485 17.5011 18.5673 17.5351 18.5024 17.5862C18.3563 17.7052 18.3238 17.8584 18.4375 18.0455L20.4179 20.8527V23.6429C20.4179 23.7279 20.4503 23.813 20.5152 23.881C20.5802 23.9491 20.6451 23.9831 20.7425 23.9831C20.8237 23.9831 20.9048 23.9491 20.9698 23.881C21.0347 23.813 21.0672 23.7449 21.0672 23.6429V20.8527L23.0475 18.0455C23.0962 17.9775 23.1125 17.8924 23.1125 17.7903C23.08 17.7052 23.0475 17.6202 22.9826 17.5862Z" fill="black"/>
<path d="M27.4953 18.0455C28.0959 18.0455 28.6316 18.2497 29.1024 18.624C29.1673 18.675 29.2484 18.709 29.3296 18.692C29.427 18.675 29.4919 18.641 29.5406 18.5729C29.6056 18.5049 29.638 18.4198 29.6218 18.3177C29.6056 18.2327 29.5731 18.1476 29.4919 18.0795C28.9076 17.6032 28.242 17.365 27.4953 17.365C26.6188 17.365 25.8396 17.6882 25.2227 18.3347C24.6059 18.9642 24.2812 19.7468 24.2812 20.6656C24.2812 21.5673 24.6059 22.3499 25.2227 22.9964C25.8396 23.6259 26.6188 23.9491 27.4953 23.9491C28.242 23.9491 28.9076 23.7109 29.4919 23.2516C29.5569 23.2005 29.6056 23.1155 29.6056 23.0134C29.6056 22.9283 29.5893 22.8433 29.5406 22.7752C29.4919 22.6901 29.427 22.6561 29.3296 22.6391C29.2484 22.6221 29.1673 22.6391 29.0861 22.7071C28.6478 23.0984 28.0959 23.2856 27.4304 23.2856C26.7648 23.2856 26.1805 23.0304 25.6773 22.52C25.174 22.0096 24.9306 21.3971 24.9306 20.6656C24.9306 19.951 25.1903 19.3215 25.6773 18.8111C26.1642 18.3177 26.7811 18.0455 27.4953 18.0455Z" fill="black"/>
<path d="M43.9555 17.5522C43.8905 17.5011 43.8094 17.5011 43.7282 17.5011C43.6308 17.5182 43.5659 17.5692 43.5172 17.6372L41.4881 20.5975L39.4428 17.6372C39.3291 17.4671 39.1668 17.4501 39.0045 17.5522L38.9883 17.5692C38.9071 17.6372 38.8584 17.7223 38.8584 17.8244V23.6259C38.8584 23.711 38.8909 23.796 38.9558 23.8641C39.0857 23.9832 39.2804 23.9832 39.3941 23.8641C39.459 23.796 39.4915 23.728 39.4915 23.6259V18.8112L41.2121 21.3291C41.2771 21.4312 41.3582 21.4822 41.5043 21.4822C41.618 21.4822 41.6991 21.4312 41.7641 21.3291L43.4847 18.7941V23.6259C43.4847 23.711 43.5172 23.796 43.5821 23.8641C43.647 23.9321 43.712 23.9662 43.8094 23.9662C43.8905 23.9662 43.9717 23.9321 44.0366 23.8641C44.1016 23.796 44.134 23.728 44.134 23.6259V17.8414C44.134 17.7563 44.0853 17.6543 44.0042 17.5692L43.9555 17.5522Z" fill="black"/>
<path d="M55.9027 17.5691C55.8378 17.5011 55.7728 17.467 55.6754 17.467H51.666C51.5848 17.467 51.5036 17.5011 51.4387 17.5691C51.3738 17.6372 51.3413 17.7052 51.3413 17.8073C51.3413 17.8924 51.3738 17.9774 51.4225 18.0455C51.4874 18.1135 51.5523 18.1476 51.6497 18.1476H53.3379V23.6428C53.3379 23.7279 53.3704 23.813 53.4353 23.881C53.5003 23.9491 53.5652 23.9831 53.6626 23.9831C53.7437 23.9831 53.8249 23.9491 53.8898 23.881C53.9548 23.813 53.9872 23.7449 53.9872 23.6428V18.1476H55.6754C55.7566 18.1476 55.8378 18.1135 55.9027 18.0455C55.9676 17.9774 55.9839 17.8924 55.9839 17.8073C56.0001 17.7222 55.9676 17.6372 55.9027 17.5691Z" fill="black"/>
<path d="M15.5644 17.7222C15.5157 17.5861 15.4183 17.5181 15.2722 17.5181C15.1261 17.5181 15.0125 17.5861 14.9638 17.7222L12.8698 23.5067C12.8373 23.5918 12.8373 23.6769 12.8698 23.7619C12.9023 23.847 12.9672 23.898 13.0321 23.9321L13.1458 23.9491C13.2919 23.9491 13.3893 23.864 13.438 23.7279L15.2235 18.726L17.0091 23.7279C17.0578 23.864 17.1715 23.9491 17.3176 23.9491L17.3987 23.9321L17.4312 23.915C17.5124 23.881 17.561 23.813 17.5935 23.7279C17.626 23.6428 17.626 23.5578 17.5935 23.4727L15.5644 17.7222Z" fill="black"/>
<path d="M49.572 17.484H46.1469C45.9684 17.484 45.8223 17.6371 45.8223 17.8243C45.8223 18.0114 45.9684 18.1645 46.1469 18.1645H49.572C49.7506 18.1645 49.8967 18.0114 49.8967 17.8243C49.8967 17.6371 49.7506 17.484 49.572 17.484Z" fill="black"/>
<path d="M49.572 20.3933H46.1469C45.9684 20.3933 45.8223 20.5464 45.8223 20.7336C45.8223 20.9207 45.9684 21.0738 46.1469 21.0738H49.572C49.7506 21.0738 49.8967 20.9207 49.8967 20.7336C49.8967 20.5464 49.7506 20.3933 49.572 20.3933Z" fill="black"/>
<path d="M49.572 23.3196H46.1469C45.9684 23.3196 45.8223 23.4727 45.8223 23.6598C45.8223 23.847 45.9684 24.0001 46.1469 24.0001H49.572C49.7506 24.0001 49.8967 23.847 49.8967 23.6598C49.8967 23.4727 49.7506 23.3196 49.572 23.3196Z" fill="black"/>
<path d="M9.99662 17.484H9.13629H8.30842C8.24349 17.484 8.17856 17.501 8.12986 17.5521C8.11363 17.5521 8.0974 17.5521 8.0974 17.5691C8.0487 17.6201 8.03247 17.6712 8.01623 17.7222C8.01623 17.7392 8.01623 17.7732 8.01623 17.7902C8.01623 17.8753 8.0487 17.9604 8.0974 18.0284C8.16233 18.0965 8.22726 18.1305 8.32465 18.1305H8.64931H9.13629H9.99662C10.3213 18.1305 10.5972 18.2496 10.8245 18.4878C11.0517 18.726 11.1654 19.0152 11.1654 19.3555C11.1654 19.6957 11.0517 19.985 10.8245 20.2231C10.5972 20.4613 10.3213 20.5974 9.99662 20.5974H8.95773H8.63307H8.30842C8.22726 20.5974 8.14609 20.6315 8.08116 20.6995C8.03247 20.7846 8 20.8696 8 20.9547V23.6428C8 23.7279 8.03247 23.8129 8.0974 23.881C8.16233 23.949 8.22726 23.9831 8.32465 23.9831C8.40582 23.9831 8.48698 23.949 8.55191 23.898C8.61684 23.8299 8.64931 23.7619 8.64931 23.6598V21.295L10.0129 21.278C10.4998 21.278 10.9381 21.0908 11.2952 20.7165C11.6524 20.3422 11.8309 19.8999 11.8309 19.3725C11.8309 18.8451 11.6524 18.4027 11.2952 18.0284C10.9219 17.6712 10.4998 17.484 9.99662 17.484Z" fill="black"/>
<path d="M15.4511 22.4858H15.0452C14.8667 22.4858 14.7368 22.639 14.7368 22.8091C14.7368 22.9962 14.8829 23.1323 15.0452 23.1323H15.4511C15.6296 23.1323 15.7595 22.9792 15.7595 22.8091C15.7595 22.724 15.727 22.639 15.6621 22.5709C15.5971 22.5029 15.5484 22.4858 15.4511 22.4858Z" fill="black"/>
<path d="M35.6928 21.9755L35.011 22.6901C34.1994 23.5407 32.8845 23.5407 32.0729 22.6901C31.6833 22.2818 31.4561 21.7373 31.4561 21.1419C31.4561 20.5634 31.6671 20.019 32.0729 19.5937L33.891 17.6882C34.0208 17.5521 34.0208 17.3479 33.891 17.2118C33.7611 17.0757 33.5663 17.0757 33.4365 17.2118L31.6184 19.1173C31.099 19.6617 30.823 20.3763 30.823 21.1249C30.823 21.8734 31.099 22.605 31.6184 23.1324C32.1541 23.6939 32.8358 23.9661 33.5339 23.9661C34.2319 23.9661 34.9299 23.6939 35.4493 23.1324L36.1311 22.4179C36.2609 22.2818 36.2609 22.0776 36.1311 21.9415C36.0012 21.8054 35.8064 21.8564 35.6928 21.9755Z" fill="black"/>
<path d="M32.365 20.5974C32.4299 20.6655 32.5111 20.6995 32.5922 20.6995C32.6734 20.6995 32.7546 20.6655 32.8195 20.5974L36.7965 16.4292C36.9263 16.2931 36.9263 16.0889 36.7965 15.9528C36.6666 15.8167 36.4718 15.8167 36.342 15.9528L32.365 20.121C32.2351 20.2571 32.2351 20.4613 32.365 20.5974Z" fill="black"/>
<path d="M35.1899 19.4065C35.06 19.2704 34.8653 19.2704 34.7354 19.4065L33.664 20.5294C33.5342 20.6655 33.5342 20.8697 33.664 21.0058C33.729 21.0738 33.8101 21.1078 33.8913 21.1078C33.9725 21.1078 34.0536 21.0738 34.1186 21.0058L35.1899 19.8829C35.3198 19.7468 35.3198 19.5426 35.1899 19.4065Z" fill="black"/>
<path d="M38.7769 15.6636C38.6471 15.5275 38.4523 15.5275 38.3224 15.6636L36.3096 17.7732C36.1797 17.9093 36.1797 18.1135 36.3096 18.2496C36.3745 18.3177 36.4556 18.3517 36.5368 18.3517C36.618 18.3517 36.6991 18.3177 36.7641 18.2496L38.7769 16.14C38.9068 16.0039 38.9068 15.7827 38.7769 15.6636Z" fill="black"/>
<path d="M35.8717 19.1684L36.099 18.9303C36.2289 18.7942 36.2289 18.59 36.099 18.4539C35.9691 18.3178 35.7743 18.3178 35.6445 18.4539L35.4172 18.6921C35.2874 18.8282 35.2874 19.0323 35.4172 19.1684C35.4822 19.2365 35.5633 19.2705 35.6445 19.2705C35.7256 19.2705 35.8068 19.2365 35.8717 19.1684Z" fill="black"/>
<path d="M36.5042 21.125L36.3581 21.2781C36.2283 21.4143 36.2283 21.6184 36.3581 21.7545C36.4231 21.8226 36.5042 21.8566 36.5854 21.8566C36.6666 21.8566 36.7477 21.8226 36.8127 21.7545L36.9587 21.6014C37.0886 21.4653 37.0886 21.2611 36.9587 21.125C36.8289 20.9889 36.6341 20.9889 36.5042 21.125Z" fill="black"/>
<path d="M34.3779 22.3839C34.459 22.3839 34.5402 22.3499 34.6051 22.2818L35.3843 21.4652C35.5142 21.3291 35.5142 21.1249 35.3843 20.9888C35.2544 20.8527 35.0596 20.8527 34.9298 20.9888L34.1506 21.8054C34.0208 21.9415 34.0208 22.1457 34.1506 22.2818C34.2155 22.3499 34.2967 22.3839 34.3779 22.3839Z" fill="black"/>
<path d="M36.7159 19.1173L35.612 20.2742C35.4822 20.4103 35.4822 20.6145 35.612 20.7506C35.677 20.8186 35.7581 20.8526 35.8393 20.8526C35.9205 20.8526 36.0016 20.8186 36.0666 20.7506L37.1704 19.5937C37.3002 19.4576 37.3002 19.2534 37.1704 19.1173C37.0405 18.9812 36.8457 18.9982 36.7159 19.1173Z" fill="black"/>
<path d="M32.6413 15.8338C32.7224 15.9188 32.8361 15.9188 32.9172 15.8338L33.1607 15.5786C33.2419 15.4935 33.2419 15.3744 33.1607 15.2893L32.9172 15.0341C32.8361 14.9491 32.7224 14.9491 32.6413 15.0341L32.3978 15.2893C32.3166 15.3744 32.3166 15.4935 32.3978 15.5786L32.6413 15.8338Z" fill="black"/>
<path d="M31.3099 17.2118C31.3748 17.2798 31.4722 17.2798 31.5209 17.2118L31.7157 17.0076C31.7806 16.9396 31.7806 16.8375 31.7157 16.7864L31.5209 16.5823C31.456 16.5142 31.3586 16.5142 31.3099 16.5823L31.1151 16.7864C31.0502 16.8545 31.0502 16.9566 31.1151 17.0076L31.3099 17.2118Z" fill="black"/>
</g>
<defs>
<clipPath id="clip0">
<rect width="48" height="9" fill="white" transform="translate(8 15)"/>
</clipPath>
</defs>
</svg>
